<svg xmlns="http://www.w3.org/2000/svg" viewBox="149.2 224.8 1587.0 1599.4">
  <title>SolCam</title>
  <path fill="#1e90ff" fill-rule="evenodd" d="M247.4,1724.6 C246.6,1722.6 248.3,1719.6 254.7,1711.8 C262.0,1702.8 269.3,1696.7 286.5,1685.3 C302.9,1674.4 332.2,1664.7 358.2,1661.5 C360.8,1661.2 363.5,1660.8 364.2,1660.5 C364.9,1660.3 368.4,1659.9 371.9,1659.5 C375.5,1659.2 378.6,1658.7 378.9,1658.6 C379.2,1658.4 384.6,1657.9 390.9,1657.6 C397.1,1657.3 402.5,1656.8 402.9,1656.5 C403.3,1656.3 409.2,1656.0 416.1,1656.0 C422.9,1655.9 430.3,1655.4 432.5,1655.0 C434.7,1654.5 439.9,1653.8 444.0,1653.6 C459.5,1652.5 469.5,1651.0 489.5,1646.5 C523.7,1638.9 542.1,1631.0 569.0,1612.1 C582.4,1602.8 605.2,1578.3 610.8,1567.5 C614.9,1559.3 615.3,1556.0 613.4,1541.7 C610.8,1521.6 610.8,1489.7 613.5,1462.5 C615.3,1444.1 620.8,1417.2 627.1,1396.9 C629.3,1389.5 631.5,1382.2 632.0,1380.5 C632.8,1377.6 637.1,1365.7 639.0,1361.2 C640.9,1356.9 641.9,1354.4 644.6,1348.0 C646.0,1344.4 649.3,1337.7 651.7,1333.0 C654.2,1328.3 658.5,1320.2 661.2,1315.0 C664.0,1309.8 666.6,1305.0 667.0,1304.5 C667.4,1304.0 669.1,1301.0 670.7,1298.0 C678.2,1284.4 685.6,1271.9 690.4,1264.5 C704.2,1243.7 722.4,1216.3 730.2,1205.0 C734.9,1198.1 743.0,1186.2 748.3,1178.5 C753.5,1170.8 758.9,1163.0 760.2,1161.3 C761.5,1159.5 764.8,1154.8 767.5,1150.9 C770.2,1147.0 776.0,1139.1 780.2,1133.4 C784.5,1127.7 789.3,1121.0 791.0,1118.6 C792.6,1116.1 794.6,1113.6 795.2,1112.8 C795.9,1112.1 799.2,1107.9 802.5,1103.5 C805.8,1099.2 811.9,1091.5 816.0,1086.5 C820.2,1081.6 824.5,1076.4 825.5,1075.1 C827.5,1072.7 830.4,1069.3 839.2,1059.5 C841.6,1056.8 844.9,1052.9 846.4,1051.0 C848.0,1049.1 852.7,1043.7 857.0,1039.0 C861.2,1034.3 867.1,1027.8 870.0,1024.5 C873.0,1021.2 877.7,1016.0 880.4,1013.0 C894.1,998.3 900.0,991.9 906.1,985.5 C909.8,981.6 915.8,975.1 919.5,971.0 C923.3,966.9 926.8,963.0 927.4,962.5 C928.0,962.0 931.6,957.9 935.5,953.5 C944.5,943.2 943.5,944.4 951.0,936.0 C954.6,932.0 958.9,927.3 960.6,925.6 C962.3,923.9 966.3,919.4 969.5,915.5 C979.8,903.0 986.1,896.7 987.2,897.8 C987.8,898.4 988.6,904.6 989.1,911.7 C990.5,933.1 991.2,939.4 992.7,946.0 C993.5,949.1 994.7,943.3 995.5,933.0 C996.3,921.5 998.2,907.6 999.1,905.2 C999.6,903.9 1000.0,900.9 1000.0,898.5 C1000.0,896.1 1000.4,891.9 1000.9,889.3 C1001.4,886.7 1002.4,881.2 1003.1,877.2 C1003.8,873.2 1004.7,869.7 1005.2,869.4 C1005.6,869.1 1006.0,868.0 1006.0,867.0 C1006.0,862.9 1015.4,837.7 1021.7,825.1 C1029.8,808.7 1039.5,793.9 1054.3,775.0 C1056.0,772.8 1065.6,758.8 1071.5,750.0 C1074.2,745.9 1079.0,738.0 1082.1,732.5 C1089.0,720.3 1090.0,720.0 1095.5,727.6 C1117.6,758.7 1177.3,795.3 1242.9,818.1 C1259.7,823.9 1304.2,835.0 1316.5,836.4 C1319.2,836.8 1322.6,837.2 1324.0,837.5 C1330.5,838.6 1357.3,839.7 1364.0,839.2 L1371.5,838.5 L1371.8,829.3 C1372.2,816.9 1367.1,798.0 1363.4,798.0 C1361.8,798.0 1345.4,796.4 1331.5,794.9 C1322.3,793.9 1307.4,791.3 1299.0,789.0 C1297.1,788.5 1293.2,787.6 1290.5,787.0 C1287.8,786.3 1284.4,785.5 1283.0,785.0 C1281.6,784.6 1278.7,783.7 1276.5,783.1 C1250.9,776.2 1233.9,769.9 1204.0,756.2 C1180.2,745.2 1153.2,729.9 1146.8,723.7 C1146.1,723.0 1143.9,721.3 1142.0,720.0 C1133.1,713.8 1108.2,689.5 1107.8,686.6 C1107.6,685.4 1109.2,679.5 1111.3,673.5 C1117.8,655.1 1125.5,628.5 1128.0,616.0 C1128.5,613.5 1129.4,609.2 1130.0,606.5 C1130.5,603.8 1131.3,600.4 1131.6,599.0 C1131.9,597.6 1132.5,595.1 1133.0,593.5 C1133.4,591.9 1134.8,586.5 1135.9,581.5 C1138.4,571.0 1139.0,570.2 1142.7,571.9 C1153.1,576.6 1162.1,584.4 1185.9,609.3 C1196.2,620.1 1205.3,624.6 1214.5,623.7 C1237.3,621.3 1256.5,603.2 1265.8,575.5 C1273.4,552.7 1273.1,527.3 1264.4,482.0 C1262.2,470.4 1261.3,466.0 1259.0,455.5 C1256.4,443.4 1255.6,434.8 1255.5,419.0 C1255.5,400.1 1256.1,397.0 1261.9,383.5 C1264.8,376.6 1265.0,373.0 1262.2,376.6 C1259.9,379.6 1250.9,398.9 1248.4,406.4 C1242.9,422.4 1242.8,442.3 1247.9,467.0 C1248.5,469.5 1249.8,475.4 1250.8,480.2 C1256.5,505.3 1258.2,540.3 1254.5,557.0 C1253.6,561.1 1252.6,565.6 1252.4,567.0 C1250.2,578.4 1241.0,594.0 1233.0,599.5 C1218.8,609.3 1204.9,608.1 1193.8,596.1 C1179.5,580.6 1164.4,566.9 1152.6,558.5 C1109.7,528.2 1103.5,522.5 1087.2,498.7 C1071.0,475.0 1069.2,467.5 1076.1,453.1 C1079.8,445.5 1081.7,443.1 1092.2,432.7 C1098.8,426.3 1104.5,421.0 1105.0,421.0 C1105.4,421.0 1106.8,420.1 1108.1,418.9 C1112.4,415.3 1114.4,413.6 1122.0,407.6 C1132.7,399.1 1140.4,392.4 1157.4,376.7 C1185.2,351.0 1197.4,344.9 1223.6,343.6 C1235.3,343.0 1237.7,342.3 1256.2,334.6 C1279.4,324.9 1317.8,319.7 1342.7,323.0 C1350.7,324.1 1355.5,324.8 1374.0,327.6 C1387.8,329.7 1387.9,329.7 1399.5,331.0 C1442.0,336.0 1461.5,346.4 1500.2,385.0 C1507.8,392.7 1510.0,397.0 1513.5,411.2 C1516.8,424.6 1517.7,426.5 1521.2,429.5 C1526.0,433.6 1550.8,440.6 1603.0,452.6 C1613.1,455.0 1627.6,461.1 1631.6,464.6 C1639.7,471.9 1641.6,483.0 1637.9,503.1 C1634.8,520.9 1627.9,549.2 1624.2,560.0 C1621.7,567.4 1615.5,580.0 1611.9,585.2 C1610.8,586.6 1610.0,588.1 1610.0,588.5 C1610.0,588.8 1607.4,592.6 1604.1,596.8 C1582.8,624.9 1550.8,639.3 1500.5,643.5 C1487.3,644.7 1476.6,648.2 1469.2,653.8 C1461.6,659.6 1453.5,674.4 1451.0,687.1 C1447.7,704.0 1448.2,742.3 1452.0,760.9 C1453.1,766.4 1454.0,771.7 1454.0,772.8 C1454.0,775.4 1447.9,779.5 1439.9,782.1 C1436.4,783.3 1433.0,784.6 1432.5,785.0 C1432.0,785.4 1427.9,786.9 1423.5,788.4 C1419.2,789.9 1415.3,791.3 1414.9,791.6 C1414.5,791.8 1415.3,795.7 1416.7,800.2 C1418.4,806.1 1419.3,812.0 1419.7,820.7 C1420.3,833.7 1420.1,833.2 1425.5,831.0 C1426.6,830.5 1431.1,828.7 1435.5,827.0 C1442.3,824.4 1450.0,820.2 1458.3,814.7 C1459.8,813.7 1460.3,813.8 1461.3,815.1 C1463.9,818.5 1484.2,871.6 1483.8,873.8 C1483.2,876.4 1472.2,879.1 1469.4,877.2 C1468.8,876.8 1465.8,872.5 1462.7,867.5 C1449.8,846.6 1438.3,841.6 1416.0,847.0 C1401.0,850.6 1397.1,850.7 1398.5,847.2 C1398.9,846.3 1399.9,841.9 1400.7,837.5 C1403.0,824.1 1401.0,809.8 1394.8,797.3 C1391.5,790.6 1390.6,790.0 1384.5,790.5 C1382.3,790.7 1380.0,790.9 1379.5,791.0 C1376.0,791.2 1375.9,792.8 1379.4,799.6 C1385.0,810.8 1387.3,826.6 1384.9,838.2 C1381.6,854.6 1381.7,854.5 1367.4,857.1 C1350.8,860.1 1346.1,862.0 1339.7,868.4 C1334.5,873.5 1332.3,878.9 1329.5,892.6 C1326.8,906.5 1326.1,907.4 1316.5,909.0 C1308.1,910.4 1306.6,909.9 1305.7,905.0 C1304.6,899.8 1301.5,897.7 1296.1,898.5 C1258.8,904.0 1258.3,904.2 1259.4,913.7 L1260.0,919.1 L1256.5,920.5 C1254.6,921.3 1252.3,922.0 1251.5,922.0 C1244.9,922.0 1232.2,932.3 1227.5,941.5 C1221.6,953.3 1221.5,960.9 1227.0,988.5 C1227.5,991.2 1228.2,995.1 1228.4,997.0 C1228.6,998.9 1230.0,1006.4 1231.4,1013.5 C1232.8,1020.6 1234.5,1028.8 1235.0,1031.5 C1235.5,1034.2 1236.4,1038.8 1236.9,1041.5 C1238.4,1048.9 1241.0,1062.7 1242.2,1069.5 C1242.7,1072.8 1243.6,1077.5 1244.0,1080.0 C1244.5,1082.5 1245.8,1089.2 1246.9,1095.0 C1253.3,1128.7 1254.1,1131.0 1262.1,1139.0 C1274.8,1151.7 1284.8,1153.0 1319.5,1146.2 C1331.6,1143.8 1343.8,1141.5 1346.5,1141.0 C1374.4,1135.9 1383.3,1134.2 1387.5,1133.0 C1389.2,1132.5 1402.2,1129.8 1416.5,1127.0 C1430.8,1124.3 1446.8,1121.1 1452.0,1120.0 C1457.2,1119.0 1464.4,1117.6 1468.0,1116.9 C1471.6,1116.3 1478.2,1114.9 1482.7,1113.9 C1493.4,1111.4 1498.0,1111.4 1498.0,1113.8 C1498.0,1119.9 1472.0,1179.0 1461.0,1198.0 C1458.9,1201.6 1456.0,1207.4 1454.5,1211.0 L1451.7,1217.5 L1451.9,1247.1 C1452.0,1275.4 1451.2,1290.2 1447.9,1318.5 C1447.4,1323.5 1446.7,1330.0 1446.4,1333.0 C1446.2,1336.0 1445.6,1340.5 1445.1,1343.0 C1444.7,1345.5 1444.2,1349.5 1444.1,1352.0 C1444.0,1354.5 1442.8,1366.2 1441.4,1378.0 C1432.1,1456.3 1432.8,1550.2 1443.0,1596.1 C1448.1,1618.8 1454.7,1632.6 1466.0,1644.2 C1473.6,1652.0 1478.7,1654.0 1490.9,1654.0 C1505.7,1654.0 1515.3,1658.4 1527.5,1670.5 C1540.7,1683.7 1543.9,1691.9 1544.3,1713.0 L1544.5,1725.5 L1480.8,1725.8 C1418.7,1726.0 1417.0,1726.0 1411.6,1724.0 C1404.2,1721.2 1399.1,1715.9 1396.1,1707.9 C1391.0,1694.1 1383.5,1681.8 1376.0,1674.5 C1368.5,1667.3 1365.9,1658.4 1362.4,1627.5 C1361.1,1616.4 1356.6,1609.0 1346.4,1601.6 C1335.1,1593.2 1335.5,1595.0 1335.5,1555.5 C1335.5,1533.7 1335.0,1518.6 1334.2,1513.5 C1333.5,1509.1 1332.6,1502.8 1332.1,1499.5 C1331.0,1492.0 1326.3,1465.0 1325.1,1459.0 C1323.5,1451.5 1322.0,1442.9 1314.9,1401.0 C1314.3,1397.4 1313.1,1391.1 1312.3,1387.0 C1309.6,1374.0 1307.4,1361.2 1306.3,1353.4 L1305.8,1349.4 L1317.6,1339.9 C1331.3,1328.9 1335.3,1325.1 1343.6,1315.5 C1364.0,1291.6 1384.4,1259.5 1395.1,1234.5 C1400.6,1221.5 1412.5,1186.1 1410.8,1188.0 C1410.5,1188.3 1407.7,1193.5 1404.5,1199.5 C1395.3,1217.0 1376.5,1246.9 1365.0,1262.0 C1363.6,1263.9 1359.7,1269.1 1356.4,1273.5 C1343.9,1290.4 1312.6,1319.4 1288.7,1336.4 C1285.4,1338.6 1279.3,1343.0 1275.0,1346.0 C1270.8,1349.0 1263.6,1354.3 1259.1,1357.8 C1247.1,1367.1 1247.5,1367.6 1247.7,1342.0 C1248.0,1310.4 1250.6,1278.0 1253.9,1264.5 C1259.1,1242.8 1270.6,1214.6 1279.4,1201.7 C1280.8,1199.6 1282.0,1197.7 1282.0,1197.5 C1282.0,1197.3 1284.7,1193.1 1288.0,1188.1 C1291.3,1183.1 1294.0,1178.8 1294.0,1178.5 C1294.0,1177.1 1285.8,1183.4 1277.4,1191.3 C1265.7,1202.4 1254.6,1218.6 1248.1,1234.0 C1245.7,1239.8 1243.4,1245.4 1242.9,1246.5 C1240.2,1253.0 1233.2,1283.0 1231.6,1295.0 C1231.3,1297.5 1230.8,1300.8 1230.6,1302.5 C1228.5,1316.9 1229.4,1370.1 1232.4,1413.5 C1233.3,1425.0 1234.1,1438.6 1234.4,1443.5 C1234.7,1448.5 1235.1,1453.2 1235.4,1454.0 C1235.6,1454.8 1236.1,1460.1 1236.4,1465.6 C1236.7,1471.2 1237.2,1476.4 1237.4,1477.1 C1237.7,1477.9 1238.1,1483.2 1238.4,1489.0 C1238.7,1494.8 1239.1,1500.2 1239.4,1501.0 C1239.6,1501.8 1240.1,1507.5 1240.4,1513.5 C1240.7,1519.5 1241.2,1525.8 1241.4,1527.5 C1241.7,1529.2 1242.1,1536.8 1242.4,1544.5 C1244.3,1595.3 1252.7,1627.6 1268.2,1643.4 C1274.8,1650.2 1276.7,1651.0 1294.0,1655.0 C1321.1,1661.2 1340.7,1687.4 1339.8,1716.2 L1339.5,1725.5 L1274.5,1725.8 C1227.3,1726.0 1208.0,1725.8 1204.0,1724.9 C1188.7,1721.7 1180.0,1708.7 1171.1,1675.8 C1165.7,1656.2 1161.2,1641.4 1159.2,1636.5 C1155.5,1627.7 1151.8,1621.9 1147.2,1617.5 C1133.5,1604.7 1133.2,1604.3 1132.6,1599.8 C1132.3,1597.4 1131.8,1582.9 1131.5,1567.5 C1130.9,1536.6 1130.4,1525.5 1129.0,1516.5 C1128.5,1513.2 1126.9,1502.2 1125.5,1492.0 C1124.0,1481.8 1122.0,1468.5 1121.0,1462.5 C1119.9,1456.5 1118.4,1447.2 1117.5,1442.0 C1115.7,1431.0 1110.5,1403.5 1108.5,1394.0 C1107.7,1390.4 1106.4,1383.9 1105.6,1379.5 C1104.8,1375.1 1103.0,1365.4 1101.6,1358.0 C1100.2,1350.6 1098.6,1341.8 1098.1,1338.5 C1097.6,1335.2 1096.2,1328.2 1095.1,1323.0 C1093.9,1317.8 1092.6,1311.5 1092.0,1309.0 C1091.1,1304.4 1084.7,1284.2 1083.1,1280.5 C1078.7,1270.5 1073.8,1260.7 1071.2,1256.6 C1067.3,1250.6 1067.3,1249.5 1070.6,1233.9 C1074.8,1214.3 1075.1,1211.8 1075.7,1188.9 C1076.2,1166.9 1075.3,1158.5 1070.8,1142.5 C1069.7,1138.4 1064.9,1123.7 1064.5,1123.2 C1064.4,1123.1 1064.4,1130.7 1064.5,1140.2 C1064.8,1159.8 1063.7,1178.0 1061.5,1189.0 C1060.7,1193.1 1059.6,1199.4 1058.9,1203.0 C1057.4,1211.4 1054.8,1220.8 1049.9,1235.0 C1045.0,1249.6 1045.0,1250.2 1051.0,1259.4 C1063.3,1278.2 1070.4,1298.4 1076.4,1331.5 C1077.3,1336.5 1078.5,1342.1 1079.0,1344.0 C1082.9,1359.0 1089.8,1393.2 1092.4,1411.0 C1092.7,1412.9 1093.6,1417.8 1094.5,1421.8 C1097.0,1433.7 1097.8,1432.1 1082.5,1443.4 C1070.5,1452.2 1046.0,1477.0 1035.7,1490.9 C1029.1,1499.6 1016.0,1519.4 1016.0,1520.5 C1016.0,1520.7 1014.8,1523.1 1013.2,1525.7 C1010.0,1531.3 1006.4,1538.9 1007.7,1537.5 C1008.2,1537.0 1010.4,1534.2 1012.5,1531.5 C1027.3,1512.6 1056.9,1483.1 1071.1,1473.3 C1080.1,1467.1 1097.6,1457.7 1098.8,1458.4 C1102.9,1460.9 1110.8,1510.5 1111.7,1539.3 C1112.6,1566.8 1112.0,1568.3 1092.5,1591.9 C1086.0,1599.7 1080.0,1605.5 1068.0,1615.9 C1052.9,1628.8 1051.2,1630.2 1034.0,1643.1 C1027.3,1648.1 1022.0,1652.4 1022.2,1652.6 C1022.5,1652.8 1044.9,1653.2 1072.1,1653.4 C1144.1,1654.1 1145.6,1654.6 1152.0,1678.6 C1154.1,1686.5 1158.5,1699.8 1163.9,1715.2 C1165.6,1720.1 1167.0,1724.4 1167.0,1725.0 C1167.0,1725.7 1139.9,1726.0 1087.5,1726.0 L1008.0,1726.0 L1007.6,1723.8 C1007.3,1722.5 1006.9,1717.4 1006.6,1712.4 C1005.6,1693.8 998.0,1675.9 984.7,1661.3 C979.9,1656.0 966.2,1647.3 956.6,1643.5 C939.1,1636.4 938.8,1636.4 896.0,1636.8 C858.3,1637.1 849.0,1636.8 849.0,1635.0 C849.0,1633.8 856.8,1626.6 868.5,1617.1 C874.0,1612.6 881.4,1606.6 884.9,1603.7 C915.4,1578.8 945.0,1538.7 958.3,1504.5 C965.7,1485.2 967.7,1477.1 970.8,1452.5 C974.4,1424.5 965.1,1381.2 951.2,1360.5 C945.0,1351.3 936.9,1341.2 931.8,1336.4 C917.9,1323.4 895.1,1311.8 874.0,1306.9 C868.1,1305.5 840.2,1305.1 833.5,1306.2 C811.3,1310.0 778.9,1322.6 764.6,1333.1 C759.9,1336.5 760.0,1336.5 767.6,1334.1 C770.8,1333.1 775.8,1331.7 778.5,1331.1 C781.2,1330.5 788.9,1328.6 795.5,1327.0 C836.0,1317.2 878.5,1322.3 903.0,1339.9 C908.7,1343.9 923.1,1358.0 928.2,1364.5 C945.8,1386.5 953.8,1427.8 947.5,1463.5 C940.3,1504.6 919.1,1543.3 886.4,1575.0 C869.0,1591.8 846.2,1611.0 831.5,1621.0 C828.8,1622.9 825.1,1625.6 823.3,1627.0 C821.6,1628.4 818.7,1630.7 816.8,1632.1 C815.0,1633.6 808.3,1638.5 802.0,1643.0 C795.7,1647.5 789.8,1651.8 789.0,1652.6 C787.8,1653.8 797.2,1654.0 858.5,1654.0 C932.1,1654.1 929.1,1653.9 944.6,1657.9 C951.9,1659.8 961.9,1666.2 969.2,1673.8 C982.8,1687.8 988.3,1700.3 987.8,1716.1 L987.5,1725.5 L841.5,1725.8 L695.5,1726.0 L689.5,1723.9 C681.3,1721.0 676.9,1717.2 673.0,1709.9 C669.9,1704.0 669.7,1703.1 669.7,1693.6 C669.7,1681.1 671.8,1675.1 686.0,1647.5 C695.8,1628.5 697.3,1625.7 708.1,1605.8 C715.6,1592.2 716.7,1589.6 714.1,1591.0 C707.5,1594.5 688.4,1615.9 678.8,1630.8 C672.8,1639.9 671.1,1642.8 665.2,1654.0 C658.4,1666.9 654.6,1671.5 644.5,1679.1 C639.4,1682.9 634.9,1686.0 634.6,1686.0 C634.3,1686.0 631.0,1687.9 627.3,1690.3 C604.2,1705.1 565.6,1719.6 542.0,1722.4 C539.5,1722.7 535.0,1723.2 532.0,1723.5 C529.0,1723.8 524.2,1724.3 521.5,1724.7 C518.8,1725.0 456.1,1725.5 382.2,1725.7 C266.2,1726.0 247.9,1725.8 247.4,1724.6 Z M1283.0,1136.1 C1278.1,1134.5 1274.3,1132.1 1271.2,1128.6 C1267.5,1124.4 1265.8,1118.8 1262.0,1098.0 C1260.8,1091.7 1259.5,1084.5 1259.0,1082.0 C1258.5,1079.5 1257.2,1072.3 1256.1,1066.0 C1254.9,1059.7 1253.5,1052.2 1253.0,1049.5 C1250.7,1038.0 1248.1,1023.7 1246.0,1012.0 C1244.0,1000.1 1243.1,995.7 1238.9,974.0 C1235.6,956.6 1236.8,950.0 1245.0,942.6 C1251.8,936.5 1256.5,934.9 1279.5,931.0 C1283.3,930.3 1290.2,928.9 1294.7,927.9 C1299.2,926.8 1303.8,926.0 1305.0,926.0 C1306.2,926.0 1309.5,925.3 1312.4,924.5 C1315.3,923.6 1322.1,922.2 1327.6,921.2 L1337.5,919.5 L1339.1,913.0 C1340.0,909.4 1342.0,901.3 1343.5,895.0 C1345.0,888.7 1346.9,882.6 1347.7,881.3 C1350.4,877.1 1358.7,873.3 1368.5,871.6 C1370.2,871.3 1376.9,870.0 1383.5,868.7 C1390.1,867.3 1397.5,865.9 1400.0,865.6 C1404.5,865.0 1409.6,864.0 1418.8,861.9 C1438.1,857.7 1440.8,859.1 1454.0,880.2 C1464.4,896.9 1461.4,895.8 1483.0,891.0 C1495.6,888.3 1499.6,887.5 1512.0,885.2 C1517.8,884.1 1526.6,882.4 1531.7,881.4 C1543.6,879.1 1549.7,880.2 1556.3,886.1 C1563.6,892.5 1564.9,896.1 1571.0,929.5 C1572.0,935.0 1573.5,943.1 1574.4,947.5 C1575.2,951.9 1576.1,956.9 1576.4,958.5 C1576.7,960.1 1577.4,964.1 1577.9,967.2 C1578.5,970.4 1579.5,975.6 1580.0,978.8 C1580.6,981.9 1581.5,986.5 1582.0,989.0 C1582.7,993.0 1584.8,1004.3 1588.1,1022.0 C1588.7,1025.0 1589.5,1029.8 1590.0,1032.5 C1590.5,1035.2 1591.5,1040.2 1592.2,1043.5 C1596.7,1064.7 1589.7,1078.2 1572.0,1082.0 C1560.8,1084.4 1553.1,1086.0 1550.5,1086.4 C1546.4,1087.1 1539.6,1088.5 1525.5,1091.5 C1512.2,1094.4 1485.7,1099.5 1479.5,1100.5 C1477.3,1100.9 1473.5,1101.5 1471.0,1102.0 C1468.5,1102.5 1464.1,1103.3 1461.2,1103.9 C1458.3,1104.4 1455.1,1105.1 1454.2,1105.4 C1453.3,1105.7 1448.5,1106.7 1443.5,1107.6 C1431.5,1109.8 1429.1,1110.2 1411.0,1113.9 C1402.5,1115.7 1392.8,1117.5 1389.5,1118.0 C1383.3,1119.0 1373.8,1120.8 1361.5,1123.5 C1357.7,1124.4 1352.2,1125.5 1349.5,1125.9 C1346.8,1126.4 1338.9,1127.9 1332.0,1129.3 C1297.7,1136.2 1287.7,1137.6 1283.0,1136.1 Z M1436.0,1080.0 C1451.1,1076.8 1460.5,1071.6 1472.0,1060.0 C1485.7,1046.2 1491.9,1034.5 1494.9,1017.0 C1497.9,998.8 1492.4,978.0 1480.2,961.1 C1471.9,949.6 1451.3,936.5 1436.4,933.1 C1430.9,931.8 1411.2,931.8 1407.0,933.0 C1405.6,933.4 1402.5,934.3 1400.0,935.1 C1378.7,941.1 1357.6,961.0 1350.5,981.5 C1345.0,997.2 1345.3,1017.8 1351.1,1033.1 C1364.3,1067.7 1400.4,1087.6 1436.0,1080.0 Z M1412.5,1064.0 C1391.4,1062.0 1372.3,1045.9 1366.0,1024.8 C1363.5,1016.5 1363.2,998.1 1365.4,990.8 C1371.5,971.1 1384.5,957.7 1404.5,950.9 C1411.1,948.6 1431.0,949.1 1439.6,951.8 C1461.9,958.7 1478.3,981.7 1478.2,1006.0 C1478.1,1042.4 1449.7,1067.4 1412.5,1064.0 Z"/>
</svg>
